<?xml version="1.0" encoding="UTF-8"?>
<!DOCTYPE svg PUBLIC "-//W3C//DTD SVG 1.1//EN" "http://www.w3.org/Graphics/SVG/1.1/DTD/svg11.dtd">
<!-- Creator: CorelDRAW X6 -->
<svg xmlns="http://www.w3.org/2000/svg" xml:space="preserve" width="92.4mm" height="39.1422mm" version="1.1" style="shape-rendering:geometricPrecision; text-rendering:geometricPrecision; image-rendering:optimizeQuality; fill-rule:evenodd; clip-rule:evenodd"
viewBox="0 0 9242 3915"
 xmlns:xlink="http://www.w3.org/1999/xlink">
 <defs>
  <style type="text/css">
   <![CDATA[
    .fil1 {fill:#C72829}
    .fil0 {fill:#D32323}
    .fil2 {fill:#E9A59B}
    .fil3 {fill:#FEFEFE}
    .fil4 {fill:#FEFEFE;fill-rule:nonzero}
   ]]>
  </style>
 </defs>
 <g id="Слой_x0020_1">
  <metadata id="CorelCorpID_0Corel-Layer"/>
  <path class="fil0" d="M4671 842l-79 0 -74 293c-47,-73 -61,-117 -103,-204 77,-119 224,-227 87,-353l-77 -70 230 -26c283,-6 471,-84 658,-197 -130,-276 -406,-320 -807,-264 -451,61 -428,149 -657,411 110,90 201,89 384,104 -64,220 19,211 -53,494l64 1814 308 57c71,-174 -79,-33 -122,-144 -4,-124 62,37 166,-117 -241,-33 -183,-93 -147,-360l190 -991c73,-171 86,-273 30,-447l0 0 2 0z"/>
  <path class="fil0" d="M6546 740c11,7 30,11 37,14l221 89 -1 1741c-11,9 -29,11 -37,16 -9,3 -27,11 -37,16 -204,94 -131,20 -190,123l941 0c-117,-231 -19,11 -248,-154l7 -1741c151,-107 169,1 231,-144 -273,-13 -721,-63 -924,41l0 0 0 -1z"/>
  <path class="fil0" d="M501 740c273,163 247,24 374,400 63,184 133,384 200,570 86,237 261,974 457,1084 9,-10 19,-24 23,-31 4,-7 17,-23 21,-31 7,-11 31,-53 39,-67 300,-614 -248,-967 -361,-1821 14,-7 34,-11 43,-16 237,-111 141,-34 180,-131 -288,-3 -761,-67 -975,44l-1 -1z"/>
  <path class="fil0" d="M8335 2595c-83,-71 -63,-51 -130,-176 -71,-130 -129,-236 -196,-367 -63,-123 -133,-258 -213,-404 -70,-130 -119,-253 -234,-344 -316,423 -210,430 210,1229 -81,240 -20,-31 -157,207l895 -6c-116,-197 -9,6 -176,-140l0 0 1 1z"/>
  <path class="fil0" d="M1733 740c11,7 26,16 34,20 9,3 27,13 37,17 131,49 -77,-21 80,24 104,31 40,3 111,23 84,400 -238,750 -211,1217l290 -760c34,-117 76,-291 141,-371 77,-94 250,-130 257,-150 6,-16 23,-13 33,-20 -141,-83 -630,-80 -773,0l1 0z"/>
  <path class="fil1" d="M7850 895l-123 306c174,-46 193,-120 317,-250 186,-193 159,-91 334,-210 -160,-93 -491,-47 -704,-47 64,150 60,34 176,201l0 0z"/>
  <path class="fil2" d="M4542 535l0 23c70,161 53,86 51,283l79 0 -16 -360 -107 12 -7 41 0 1z"/>
  <g id="_681071568">
   <g>
    <path class="fil3" d="M555 3273c4,10 13,37 26,83 6,21 10,43 10,67l-44 0c-31,-44 -64,-77 -97,-96 -34,-20 -71,-29 -111,-29 -51,0 -93,19 -123,59 -43,53 -64,129 -64,223 0,56 4,96 11,119 11,39 27,70 44,93 14,19 31,33 54,44 29,14 60,21 91,21 37,0 71,-11 104,-33 34,-23 66,-56 97,-100 11,-3 27,-4 47,-4 -1,13 -3,26 -7,39 0,6 -4,26 -10,63l-4 14 -7 23c-20,16 -49,27 -84,34 -36,9 -80,11 -133,11 -40,0 -79,-3 -114,-11 -36,-7 -66,-19 -91,-36 -37,-23 -67,-49 -87,-76 -21,-27 -37,-57 -47,-90 -11,-31 -16,-69 -16,-109 0,-97 31,-177 96,-240 64,-63 146,-94 246,-94 40,0 79,1 114,6 36,4 69,10 100,19l0 0 -1 0zm100 583c10,-3 24,-7 43,-9 19,-3 30,-4 33,-4 13,0 21,-3 26,-6 1,-9 3,-14 3,-20l-1 -63 3 -64 0 -40 1 -49 -1 -50 1 -110 1 -50 0 -6c-3,-36 -4,-54 -7,-57 -1,-4 -11,-9 -29,-13 -1,-1 -7,-3 -19,-7 -7,-4 -16,-6 -21,-7 -11,-3 -20,-7 -24,-10 0,-9 0,-16 0,-20 0,-3 0,-7 0,-11 3,-3 6,-3 9,-3 9,0 37,1 86,4l70 0 51 0c23,0 51,-1 87,-3 10,-1 17,-1 19,-1 4,0 9,1 10,4 3,3 4,9 4,19 0,7 -3,13 -6,16 -3,3 -10,4 -21,7l-61 14c-1,0 -4,1 -9,3 -1,3 -1,4 -3,6l0 14 -1 31 0 9 0 6c0,1 0,10 -1,26 0,4 0,9 0,13 0,6 0,14 0,27 1,20 1,37 1,51 0,17 -1,36 -1,59 -1,7 -1,19 -1,31l-1 233c0,10 1,16 6,19l47 3 29 -1 31 1c53,0 93,-7 123,-19 23,-10 37,-19 44,-27 11,-10 20,-21 27,-33 7,-11 14,-30 24,-56l16 0c7,0 16,0 26,1l0 14c0,23 -3,64 -9,123 -3,23 -4,37 -7,43 -7,1 -13,1 -14,1l-17 0 -26 1c-3,0 -23,-1 -59,-4 -7,0 -39,-1 -94,-3 -56,-3 -110,-3 -164,-3l-99 3c-39,0 -74,1 -109,4l-7 0c-1,0 -4,0 -10,0 0,-4 0,-7 0,-10 0,-13 1,-23 3,-29l0 0 -2 2zm654 40l0 -36c7,-1 19,-4 33,-7 21,-6 37,-11 49,-17 6,-10 9,-24 9,-41l0 -59 0 -111 0 -27c1,-64 3,-97 3,-99l0 -66 0 -27 -1 -56 0 -20c-1,-4 -1,-9 -4,-16 -13,-7 -36,-10 -66,-13 -7,0 -13,0 -17,0l0 -43 139 6c19,0 29,0 33,0 19,0 50,0 93,-3 23,-3 39,-3 44,-3 0,6 0,11 0,16 0,4 0,11 0,21 -13,4 -29,9 -46,13 -16,3 -30,7 -41,11 -1,9 -3,21 -3,37 0,14 1,26 1,34 0,56 -1,97 -1,127l1 129 -1 66 0 99 0 19c0,3 1,6 1,11 20,4 39,7 56,9 3,0 13,1 30,4 1,10 1,17 1,24 0,3 0,9 0,17 -4,0 -9,0 -10,0 -10,0 -17,1 -19,1 -1,0 -6,-1 -13,-1 -4,-1 -26,-3 -64,-7l-87 -1c-17,0 -43,1 -76,6 -21,1 -36,3 -43,3l0 0 -1 0zm378 -1l1 -33c40,-6 66,-13 77,-24 7,-9 13,-29 17,-61l6 -174 9 -177c0,-11 0,-17 0,-20 0,-46 -3,-71 -7,-79 -6,-7 -27,-14 -63,-21 -10,-1 -17,-3 -21,-4 -1,-9 -1,-16 -1,-21l0 -16c11,0 26,-1 43,-1l141 6c3,0 7,0 13,1l23 0c6,7 11,16 17,26 11,24 29,60 49,106l4 13 77 166c1,4 4,10 9,17 6,11 10,23 16,33 4,11 10,23 16,36 6,13 11,24 16,34 6,-7 10,-17 14,-26 13,-30 26,-59 37,-83 23,-44 51,-113 89,-204 6,-14 16,-37 29,-67 14,-29 21,-44 23,-46 3,-3 9,-4 17,-4 3,0 9,0 16,0 17,-1 37,-3 60,-3 34,0 63,-1 83,-3 20,-1 33,-3 36,-3 3,0 6,0 11,1 0,4 0,7 0,10l-1 16c0,3 0,7 0,13 -31,4 -56,11 -76,20 -13,7 -20,14 -20,24l0 7 9 150c1,14 4,81 7,204 1,27 4,63 7,104 0,6 1,10 1,13 0,7 1,11 4,14 3,3 33,11 90,27 0,6 0,10 0,13 0,7 0,13 0,20 -9,0 -31,-1 -67,-6 -36,-3 -69,-4 -99,-4 -47,0 -94,1 -139,6 -6,0 -11,0 -17,1l1 -34c13,-4 30,-9 53,-13 16,-3 24,-7 29,-13 4,-7 7,-24 7,-51 0,-11 0,-21 -1,-29 -1,-34 -1,-83 -3,-144l-9 -171c0,-26 -1,-43 -3,-51l-120 280c-3,6 -7,16 -13,29 -7,16 -13,27 -16,33 -24,60 -41,106 -51,139 -3,7 -6,19 -11,31l-41 0 -26 -74c-7,-20 -21,-50 -40,-90 -11,-23 -20,-41 -26,-56 -3,-6 -4,-10 -6,-14l-6 -11c-1,-3 -1,-4 -1,-6l-73 -157 -44 -96 -4 231 -4 151c0,24 4,41 14,53 9,10 29,19 60,27l23 6 0 36c-19,0 -39,-1 -61,-4 -21,-3 -50,-4 -86,-4 -7,0 -40,1 -96,4l0 0 -2 -3zm884 1l1 -34c6,-1 17,-4 33,-7 26,-4 40,-9 46,-13 6,-4 11,-13 20,-27l99 -260 116 -304c11,0 21,0 31,0l23 0 4 9 84 201c19,43 37,84 51,126 16,40 29,73 40,99 6,16 16,39 27,69 6,17 14,37 26,63 7,14 11,21 16,24 6,4 16,7 29,9 13,3 29,6 43,11 1,11 3,20 3,24 0,3 0,6 0,11 -24,0 -51,-1 -80,-4 -30,-1 -56,-3 -79,-3 -26,0 -44,0 -56,1l-83 4 -24 0c0,-11 0,-21 1,-33l54 -11c16,-4 26,-7 29,-10 3,-3 4,-7 4,-10 0,-6 0,-10 -3,-14l-19 -47 -39 -97 -187 0c-7,16 -21,54 -43,116 -6,17 -10,29 -10,34 0,9 3,14 7,19 7,6 21,10 43,13 3,1 16,3 36,6 0,11 0,20 0,24 0,3 0,7 -1,11 -20,0 -69,-3 -144,-9l-20 4c-24,4 -47,6 -69,6l-10 0 0 0 1 -1zm231 -276c76,1 120,1 134,1l13 0c-10,-29 -23,-63 -39,-101 -16,-39 -29,-69 -39,-89l-70 188 0 0 1 1zm493 -387l30 0c3,4 4,6 4,9 10,16 17,27 21,31 4,1 27,1 67,1 26,0 47,0 67,0l10 -1 59 0 111 0 151 0 29 -4c4,-3 9,-11 14,-24 0,-3 3,-7 4,-11l21 -1c4,0 9,0 16,1 0,21 0,56 0,101l0 43 0 26c0,9 0,16 -1,21 -14,4 -26,7 -36,9 -9,-13 -19,-31 -29,-56 -10,-23 -16,-37 -19,-40 -4,-3 -9,-6 -14,-7 -7,-1 -41,-3 -103,-3 -10,0 -21,0 -34,1 -1,13 -3,24 -3,31l0 66 0 144 1 156 0 64c0,21 1,39 6,50 6,3 16,4 30,7 1,0 14,3 36,7 10,3 19,6 26,9 3,11 3,19 3,21 0,3 0,6 -1,11 -7,1 -13,1 -17,1 -34,0 -63,-1 -86,-4 -24,-1 -67,-3 -129,-3 -10,0 -39,1 -87,6 -19,1 -30,1 -36,1 0,-4 0,-9 0,-10l-1 -11 0 -4c7,-10 21,-17 41,-21 34,-9 57,-16 70,-21 3,-7 6,-14 6,-26 3,-39 4,-101 4,-187l-3 -184c0,-51 -1,-83 -3,-93 0,-3 -1,-6 -3,-7 -1,-1 -4,-1 -7,-3 -10,-1 -43,-1 -99,-1 -31,0 -51,3 -61,9 -14,9 -36,30 -63,66 -9,11 -14,16 -19,16 -16,-7 -24,-14 -29,-19 10,-21 23,-64 41,-129 6,-19 9,-30 11,-37l0 0 4 -1zm657 29c19,1 34,3 49,6 26,3 56,4 89,4 13,0 43,0 91,-3 73,-3 139,-4 197,-4l89 0c20,0 49,3 89,7 6,6 9,16 9,26l0 101 1 20c0,1 0,4 -1,9l-20 1c-1,0 -7,0 -16,-1 -3,-6 -7,-16 -13,-29l-20 -36c-7,-14 -17,-30 -31,-44 -9,-3 -19,-4 -31,-4 -3,0 -13,-1 -30,-3 -30,-3 -63,-3 -99,-3 -39,0 -74,0 -106,1 0,9 0,40 0,96l0 83 0 60c7,1 14,3 20,3 59,0 100,-1 124,-4 26,-1 40,-6 46,-10 6,-3 11,-10 16,-20 3,-7 9,-31 17,-73l7 0 29 0c1,29 1,51 1,66 0,34 0,57 0,67 0,10 0,17 0,23 0,9 0,23 1,41 0,20 1,34 1,44l0 10 -36 0c-1,-4 -3,-16 -7,-31 -7,-30 -13,-50 -17,-57 -4,-6 -11,-10 -20,-13 -7,-3 -31,-3 -73,-3 -49,0 -86,1 -110,3 0,9 0,14 0,17 0,39 0,71 0,97l0 106c0,11 4,20 13,26 13,6 54,10 123,10 46,0 84,-4 116,-10 23,-6 41,-17 59,-33 23,-23 41,-53 56,-93 10,0 19,-1 24,-1 4,0 10,0 17,1 -1,7 -3,14 -3,20l-3 14 -19 93 -9 56c-21,1 -37,1 -50,1 -19,0 -67,-1 -147,-4 -56,-3 -123,-4 -201,-4 -39,0 -87,3 -144,6l-20 0 -60 1 0 -34c7,-1 19,-3 37,-4 34,-4 57,-10 71,-16 3,-10 4,-21 4,-36 0,-6 0,-16 0,-29l0 -16 -1 -184 0 -54 -1 -79 0 -56 -4 -60c0,-3 0,-6 -1,-10 -3,-4 -7,-6 -14,-7 -3,0 -9,-1 -14,-3 -19,-4 -37,-6 -54,-7 -6,0 -13,-1 -21,-1l3 -40 0 0 -3 0zm1542 11c3,10 13,37 26,83 6,21 9,43 9,67l-44 0c-31,-44 -64,-77 -97,-96 -33,-20 -70,-29 -111,-29 -51,0 -91,19 -123,59 -41,53 -63,129 -63,223 0,56 3,96 10,119 13,39 27,70 46,93 13,19 31,33 53,44 29,14 60,21 93,21 36,0 70,-11 104,-33 33,-23 66,-56 96,-100 13,-3 29,-4 47,-4 -1,13 -3,26 -6,39 -1,6 -4,26 -11,63l-4 14 -7 23c-20,16 -47,27 -84,34 -36,9 -80,11 -133,11 -40,0 -77,-3 -113,-11 -36,-7 -67,-19 -93,-36 -37,-23 -66,-49 -87,-76 -21,-27 -37,-57 -47,-90 -10,-31 -16,-69 -16,-109 0,-97 33,-177 96,-240 64,-63 147,-94 246,-94 41,0 79,1 114,6 36,4 70,10 101,19l0 0 -2 0zm97 -11c19,1 34,3 49,6 26,3 56,4 89,4 13,0 43,0 91,-3 73,-3 139,-4 197,-4l89 0c20,0 50,3 89,7 6,6 9,16 9,26l0 101 1 20c0,1 0,4 -1,9l-20 1c-1,0 -7,0 -16,-1 -3,-6 -7,-16 -13,-29l-20 -36c-7,-14 -17,-30 -31,-44 -9,-3 -19,-4 -31,-4 -3,0 -13,-1 -30,-3 -30,-3 -63,-3 -99,-3 -39,0 -74,0 -106,1 0,9 0,40 0,96l0 83 0 60c7,1 14,3 20,3 59,0 100,-1 124,-4 26,-1 40,-6 46,-10 6,-3 11,-10 16,-20 3,-7 9,-31 17,-73l7 0 29 0c1,29 1,51 1,66 0,34 0,57 0,67 0,10 0,17 0,23 0,9 0,23 1,41 0,20 1,34 1,44l0 10 -36 0c-1,-4 -3,-16 -7,-31 -7,-30 -13,-50 -17,-57 -4,-6 -11,-10 -20,-13 -7,-3 -31,-3 -73,-3 -49,0 -86,1 -110,3 0,9 0,14 0,17 0,39 0,71 0,97l0 106c0,11 4,20 13,26 13,6 54,10 123,10 46,0 84,-4 116,-10 23,-6 41,-17 59,-33 23,-23 41,-53 56,-93 10,0 19,-1 24,-1 4,0 10,0 17,1 -1,7 -3,14 -3,20l-3 14 -19 93 -9 56c-21,1 -37,1 -50,1 -19,0 -67,-1 -146,-4 -57,-3 -124,-4 -203,-4 -39,0 -87,3 -144,6l-20 0 -60 1 0 -34c7,-1 19,-3 37,-4 34,-4 57,-10 71,-16 3,-10 4,-21 4,-36 0,-6 0,-16 0,-29l0 -16 -1 -184 0 -54 -1 -79 0 -56 -4 -60c0,-3 0,-6 -1,-10 -3,-4 -7,-6 -14,-7 -3,0 -9,-1 -14,-3 -19,-4 -37,-6 -54,-7 -6,0 -13,-1 -21,-1l3 -40 0 0 -2 0zm695 39l-3 -34 41 0 14 0c20,-1 34,-1 41,-1 4,0 16,0 34,0 4,1 9,1 10,1 4,0 14,0 31,-1 19,0 29,-1 30,-1 4,0 9,1 16,1 50,46 91,84 123,117 31,34 147,149 347,347l0 -11 -3 -57c0,-34 -1,-60 -3,-80 -3,-19 -3,-43 -4,-69 0,-27 0,-51 -3,-74 -4,-43 -6,-67 -6,-74 0,-21 -3,-34 -7,-39 -7,-7 -23,-13 -47,-16 -17,-3 -31,-7 -40,-11l0 -29 13 -1 96 -3 107 -4c7,0 14,0 20,0l1 31c-7,4 -16,7 -23,10 -21,4 -33,7 -36,10 -17,9 -26,14 -27,17 -3,4 -4,10 -4,19 0,1 0,9 1,20 0,6 0,20 0,41 1,47 1,84 4,111 1,10 1,20 1,30l6 173c0,11 0,20 0,26l0 60 1 26 -1 27c1,13 3,20 3,23l0 26 -56 3 -59 -60 -120 -119 -83 -83 -61 -63c-40,-40 -76,-74 -109,-104l-80 -71 4 181c1,11 1,23 1,34l-1 34 3 64c1,27 3,56 6,87 1,9 1,14 3,17 1,4 3,9 6,16 13,4 40,7 83,10 3,0 7,1 13,3l3 41 -20 1c-10,0 -43,-3 -99,-9 -53,1 -87,1 -104,3 -17,1 -27,3 -29,3 -4,0 -10,-1 -16,-3 -1,-7 -1,-14 -1,-20 0,-3 0,-9 0,-17 10,-1 17,-3 23,-3 3,0 9,0 20,1 27,0 43,-3 49,-7 4,-4 7,-14 9,-33 1,-51 3,-83 3,-94l0 -27 1 -159 -1 -100c-1,-39 -3,-64 -9,-79 -1,-7 -6,-14 -10,-20 -11,-11 -24,-20 -39,-26 -9,-4 -30,-9 -66,-14l0 0 3 2zm892 -67l30 0c3,4 4,6 6,9 9,16 16,27 20,31 4,1 27,1 67,1 26,0 47,0 67,0l10 -1 60 0 110 0 151 0 29 -4c4,-3 9,-11 14,-24 1,-3 3,-7 4,-11l21 -1c4,0 9,0 16,1 0,21 0,56 0,101l0 43 0 26c0,9 0,16 -1,21 -14,4 -26,7 -36,9 -9,-13 -19,-31 -29,-56 -10,-23 -16,-37 -19,-40 -4,-3 -9,-6 -13,-7 -9,-1 -43,-3 -104,-3 -10,0 -21,0 -34,1 -1,13 -3,24 -3,31l0 66 0 144 1 156 0 64c0,21 3,39 6,50 6,3 16,4 30,7 3,0 14,3 36,7 10,3 19,6 27,9 1,11 1,19 1,21 0,3 0,6 -1,11 -7,1 -13,1 -17,1 -34,0 -63,-1 -86,-4 -24,-1 -67,-3 -129,-3 -10,0 -39,1 -86,6 -19,1 -31,1 -37,1 0,-4 0,-9 0,-10l-1 -11 0 -4c7,-10 21,-17 41,-21 34,-9 57,-16 70,-21 4,-7 6,-14 6,-26 3,-39 4,-101 4,-187l-3 -184c0,-51 0,-83 -3,-93 0,-3 -1,-6 -3,-7 -1,-1 -4,-1 -7,-3 -10,-1 -43,-1 -99,-1 -31,0 -51,3 -61,9 -14,9 -36,30 -63,66 -9,11 -14,16 -19,16 -16,-7 -24,-14 -29,-19 10,-21 23,-64 41,-129 6,-19 9,-30 11,-37l0 0 4 -1z"/>
    <path id="_1" class="fil4" d="M555 3273c4,10 13,37 26,83 6,21 10,43 10,67l-44 0c-31,-44 -64,-77 -97,-96 -34,-20 -71,-29 -111,-29 -51,0 -93,19 -123,59 -43,53 -64,129 -64,223 0,56 4,96 11,119 11,39 27,70 44,93 14,19 31,33 54,44 29,14 60,21 91,21 37,0 71,-11 104,-33 34,-23 66,-56 97,-100 11,-3 27,-4 47,-4 -1,13 -3,26 -7,39 0,6 -4,26 -10,63l-4 14 -7 23c-20,16 -49,27 -84,34 -36,9 -80,11 -133,11 -40,0 -79,-3 -114,-11 -36,-7 -66,-19 -91,-36 -37,-23 -67,-49 -87,-76 -21,-27 -37,-57 -47,-90 -11,-31 -16,-69 -16,-109 0,-97 31,-177 96,-240 64,-63 146,-94 246,-94 40,0 79,1 114,6 36,4 69,10 100,19l0 0 -1 0zm100 583c10,-3 24,-7 43,-9 19,-3 30,-4 33,-4 13,0 21,-3 26,-6 1,-9 3,-14 3,-20l-1 -63 3 -64 0 -40 1 -49 -1 -50 1 -110 1 -50 0 -6c-3,-36 -4,-54 -7,-57 -1,-4 -11,-9 -29,-13 -1,-1 -7,-3 -19,-7 -7,-4 -16,-6 -21,-7 -11,-3 -20,-7 -24,-10 0,-9 0,-16 0,-20 0,-3 0,-7 0,-11 3,-3 6,-3 9,-3 9,0 37,1 86,4l70 0 51 0c23,0 51,-1 87,-3 10,-1 17,-1 19,-1 4,0 9,1 10,4 3,3 4,9 4,19 0,7 -3,13 -6,16 -3,3 -10,4 -21,7l-61 14c-1,0 -4,1 -9,3 -1,3 -1,4 -3,6l0 14 -1 31 0 9 0 6c0,1 0,10 -1,26 0,4 0,9 0,13 0,6 0,14 0,27 1,20 1,37 1,51 0,17 -1,36 -1,59 -1,7 -1,19 -1,31l-1 233c0,10 1,16 6,19l47 3 29 -1 31 1c53,0 93,-7 123,-19 23,-10 37,-19 44,-27 11,-10 20,-21 27,-33 7,-11 14,-30 24,-56l16 0c7,0 16,0 26,1l0 14c0,23 -3,64 -9,123 -3,23 -4,37 -7,43 -7,1 -13,1 -14,1l-17 0 -26 1c-3,0 -23,-1 -59,-4 -7,0 -39,-1 -94,-3 -56,-3 -110,-3 -164,-3l-99 3c-39,0 -74,1 -109,4l-7 0c-1,0 -4,0 -10,0 0,-4 0,-7 0,-10 0,-13 1,-23 3,-29l0 0 -2 2zm654 40l0 -36c7,-1 19,-4 33,-7 21,-6 37,-11 49,-17 6,-10 9,-24 9,-41l0 -59 0 -111 0 -27c1,-64 3,-97 3,-99l0 -66 0 -27 -1 -56 0 -20c-1,-4 -1,-9 -4,-16 -13,-7 -36,-10 -66,-13 -7,0 -13,0 -17,0l0 -43 139 6c19,0 29,0 33,0 19,0 50,0 93,-3 23,-3 39,-3 44,-3 0,6 0,11 0,16 0,4 0,11 0,21 -13,4 -29,9 -46,13 -16,3 -30,7 -41,11 -1,9 -3,21 -3,37 0,14 1,26 1,34 0,56 -1,97 -1,127l1 129 -1 66 0 99 0 19c0,3 1,6 1,11 20,4 39,7 56,9 3,0 13,1 30,4 1,10 1,17 1,24 0,3 0,9 0,17 -4,0 -9,0 -10,0 -10,0 -17,1 -19,1 -1,0 -6,-1 -13,-1 -4,-1 -26,-3 -64,-7l-87 -1c-17,0 -43,1 -76,6 -21,1 -36,3 -43,3l0 0 -1 0zm378 -1l1 -33c40,-6 66,-13 77,-24 7,-9 13,-29 17,-61l6 -174 9 -177c0,-11 0,-17 0,-20 0,-46 -3,-71 -7,-79 -6,-7 -27,-14 -63,-21 -10,-1 -17,-3 -21,-4 -1,-9 -1,-16 -1,-21l0 -16c11,0 26,-1 43,-1l141 6c3,0 7,0 13,1l23 0c6,7 11,16 17,26 11,24 29,60 49,106l4 13 77 166c1,4 4,10 9,17 6,11 10,23 16,33 4,11 10,23 16,36 6,13 11,24 16,34 6,-7 10,-17 14,-26 13,-30 26,-59 37,-83 23,-44 51,-113 89,-204 6,-14 16,-37 29,-67 14,-29 21,-44 23,-46 3,-3 9,-4 17,-4 3,0 9,0 16,0 17,-1 37,-3 60,-3 34,0 63,-1 83,-3 20,-1 33,-3 36,-3 3,0 6,0 11,1 0,4 0,7 0,10l-1 16c0,3 0,7 0,13 -31,4 -56,11 -76,20 -13,7 -20,14 -20,24l0 7 9 150c1,14 4,81 7,204 1,27 4,63 7,104 0,6 1,10 1,13 0,7 1,11 4,14 3,3 33,11 90,27 0,6 0,10 0,13 0,7 0,13 0,20 -9,0 -31,-1 -67,-6 -36,-3 -69,-4 -99,-4 -47,0 -94,1 -139,6 -6,0 -11,0 -17,1l1 -34c13,-4 30,-9 53,-13 16,-3 24,-7 29,-13 4,-7 7,-24 7,-51 0,-11 0,-21 -1,-29 -1,-34 -1,-83 -3,-144l-9 -171c0,-26 -1,-43 -3,-51l-120 280c-3,6 -7,16 -13,29 -7,16 -13,27 -16,33 -24,60 -41,106 -51,139 -3,7 -6,19 -11,31l-41 0 -26 -74c-7,-20 -21,-50 -40,-90 -11,-23 -20,-41 -26,-56 -3,-6 -4,-10 -6,-14l-6 -11c-1,-3 -1,-4 -1,-6l-73 -157 -44 -96 -4 231 -4 151c0,24 4,41 14,53 9,10 29,19 60,27l23 6 0 36c-19,0 -39,-1 -61,-4 -21,-3 -50,-4 -86,-4 -7,0 -40,1 -96,4l0 0 -2 -3zm884 1l1 -34c6,-1 17,-4 33,-7 26,-4 40,-9 46,-13 6,-4 11,-13 20,-27l99 -260 116 -304c11,0 21,0 31,0l23 0 4 9 84 201c19,43 37,84 51,126 16,40 29,73 40,99 6,16 16,39 27,69 6,17 14,37 26,63 7,14 11,21 16,24 6,4 16,7 29,9 13,3 29,6 43,11 1,11 3,20 3,24 0,3 0,6 0,11 -24,0 -51,-1 -80,-4 -30,-1 -56,-3 -79,-3 -26,0 -44,0 -56,1l-83 4 -24 0c0,-11 0,-21 1,-33l54 -11c16,-4 26,-7 29,-10 3,-3 4,-7 4,-10 0,-6 0,-10 -3,-14l-19 -47 -39 -97 -187 0c-7,16 -21,54 -43,116 -6,17 -10,29 -10,34 0,9 3,14 7,19 7,6 21,10 43,13 3,1 16,3 36,6 0,11 0,20 0,24 0,3 0,7 -1,11 -20,0 -69,-3 -144,-9l-20 4c-24,4 -47,6 -69,6l-10 0 0 0 1 -1zm231 -276c76,1 120,1 134,1l13 0c-10,-29 -23,-63 -39,-101 -16,-39 -29,-69 -39,-89l-70 188 0 0 1 1zm493 -387l30 0c3,4 4,6 4,9 10,16 17,27 21,31 4,1 27,1 67,1 26,0 47,0 67,0l10 -1 59 0 111 0 151 0 29 -4c4,-3 9,-11 14,-24 0,-3 3,-7 4,-11l21 -1c4,0 9,0 16,1 0,21 0,56 0,101l0 43 0 26c0,9 0,16 -1,21 -14,4 -26,7 -36,9 -9,-13 -19,-31 -29,-56 -10,-23 -16,-37 -19,-40 -4,-3 -9,-6 -14,-7 -7,-1 -41,-3 -103,-3 -10,0 -21,0 -34,1 -1,13 -3,24 -3,31l0 66 0 144 1 156 0 64c0,21 1,39 6,50 6,3 16,4 30,7 1,0 14,3 36,7 10,3 19,6 26,9 3,11 3,19 3,21 0,3 0,6 -1,11 -7,1 -13,1 -17,1 -34,0 -63,-1 -86,-4 -24,-1 -67,-3 -129,-3 -10,0 -39,1 -87,6 -19,1 -30,1 -36,1 0,-4 0,-9 0,-10l-1 -11 0 -4c7,-10 21,-17 41,-21 34,-9 57,-16 70,-21 3,-7 6,-14 6,-26 3,-39 4,-101 4,-187l-3 -184c0,-51 -1,-83 -3,-93 0,-3 -1,-6 -3,-7 -1,-1 -4,-1 -7,-3 -10,-1 -43,-1 -99,-1 -31,0 -51,3 -61,9 -14,9 -36,30 -63,66 -9,11 -14,16 -19,16 -16,-7 -24,-14 -29,-19 10,-21 23,-64 41,-129 6,-19 9,-30 11,-37l0 0 4 -1zm657 29c19,1 34,3 49,6 26,3 56,4 89,4 13,0 43,0 91,-3 73,-3 139,-4 197,-4l89 0c20,0 49,3 89,7 6,6 9,16 9,26l0 101 1 20c0,1 0,4 -1,9l-20 1c-1,0 -7,0 -16,-1 -3,-6 -7,-16 -13,-29l-20 -36c-7,-14 -17,-30 -31,-44 -9,-3 -19,-4 -31,-4 -3,0 -13,-1 -30,-3 -30,-3 -63,-3 -99,-3 -39,0 -74,0 -106,1 0,9 0,40 0,96l0 83 0 60c7,1 14,3 20,3 59,0 100,-1 124,-4 26,-1 40,-6 46,-10 6,-3 11,-10 16,-20 3,-7 9,-31 17,-73l7 0 29 0c1,29 1,51 1,66 0,34 0,57 0,67 0,10 0,17 0,23 0,9 0,23 1,41 0,20 1,34 1,44l0 10 -36 0c-1,-4 -3,-16 -7,-31 -7,-30 -13,-50 -17,-57 -4,-6 -11,-10 -20,-13 -7,-3 -31,-3 -73,-3 -49,0 -86,1 -110,3 0,9 0,14 0,17 0,39 0,71 0,97l0 106c0,11 4,20 13,26 13,6 54,10 123,10 46,0 84,-4 116,-10 23,-6 41,-17 59,-33 23,-23 41,-53 56,-93 10,0 19,-1 24,-1 4,0 10,0 17,1 -1,7 -3,14 -3,20l-3 14 -19 93 -9 56c-21,1 -37,1 -50,1 -19,0 -67,-1 -147,-4 -56,-3 -123,-4 -201,-4 -39,0 -87,3 -144,6l-20 0 -60 1 0 -34c7,-1 19,-3 37,-4 34,-4 57,-10 71,-16 3,-10 4,-21 4,-36 0,-6 0,-16 0,-29l0 -16 -1 -184 0 -54 -1 -79 0 -56 -4 -60c0,-3 0,-6 -1,-10 -3,-4 -7,-6 -14,-7 -3,0 -9,-1 -14,-3 -19,-4 -37,-6 -54,-7 -6,0 -13,-1 -21,-1l3 -40 0 0 -3 0zm1542 11c3,10 13,37 26,83 6,21 9,43 9,67l-44 0c-31,-44 -64,-77 -97,-96 -33,-20 -70,-29 -111,-29 -51,0 -91,19 -123,59 -41,53 -63,129 -63,223 0,56 3,96 10,119 13,39 27,70 46,93 13,19 31,33 53,44 29,14 60,21 93,21 36,0 70,-11 104,-33 33,-23 66,-56 96,-100 13,-3 29,-4 47,-4 -1,13 -3,26 -6,39 -1,6 -4,26 -11,63l-4 14 -7 23c-20,16 -47,27 -84,34 -36,9 -80,11 -133,11 -40,0 -77,-3 -113,-11 -36,-7 -67,-19 -93,-36 -37,-23 -66,-49 -87,-76 -21,-27 -37,-57 -47,-90 -10,-31 -16,-69 -16,-109 0,-97 33,-177 96,-240 64,-63 147,-94 246,-94 41,0 79,1 114,6 36,4 70,10 101,19l0 0 -2 0zm97 -11c19,1 34,3 49,6 26,3 56,4 89,4 13,0 43,0 91,-3 73,-3 139,-4 197,-4l89 0c20,0 50,3 89,7 6,6 9,16 9,26l0 101 1 20c0,1 0,4 -1,9l-20 1c-1,0 -7,0 -16,-1 -3,-6 -7,-16 -13,-29l-20 -36c-7,-14 -17,-30 -31,-44 -9,-3 -19,-4 -31,-4 -3,0 -13,-1 -30,-3 -30,-3 -63,-3 -99,-3 -39,0 -74,0 -106,1 0,9 0,40 0,96l0 83 0 60c7,1 14,3 20,3 59,0 100,-1 124,-4 26,-1 40,-6 46,-10 6,-3 11,-10 16,-20 3,-7 9,-31 17,-73l7 0 29 0c1,29 1,51 1,66 0,34 0,57 0,67 0,10 0,17 0,23 0,9 0,23 1,41 0,20 1,34 1,44l0 10 -36 0c-1,-4 -3,-16 -7,-31 -7,-30 -13,-50 -17,-57 -4,-6 -11,-10 -20,-13 -7,-3 -31,-3 -73,-3 -49,0 -86,1 -110,3 0,9 0,14 0,17 0,39 0,71 0,97l0 106c0,11 4,20 13,26 13,6 54,10 123,10 46,0 84,-4 116,-10 23,-6 41,-17 59,-33 23,-23 41,-53 56,-93 10,0 19,-1 24,-1 4,0 10,0 17,1 -1,7 -3,14 -3,20l-3 14 -19 93 -9 56c-21,1 -37,1 -50,1 -19,0 -67,-1 -146,-4 -57,-3 -124,-4 -203,-4 -39,0 -87,3 -144,6l-20 0 -60 1 0 -34c7,-1 19,-3 37,-4 34,-4 57,-10 71,-16 3,-10 4,-21 4,-36 0,-6 0,-16 0,-29l0 -16 -1 -184 0 -54 -1 -79 0 -56 -4 -60c0,-3 0,-6 -1,-10 -3,-4 -7,-6 -14,-7 -3,0 -9,-1 -14,-3 -19,-4 -37,-6 -54,-7 -6,0 -13,-1 -21,-1l3 -40 0 0 -2 0zm695 39l-3 -34 41 0 14 0c20,-1 34,-1 41,-1 4,0 16,0 34,0 4,1 9,1 10,1 4,0 14,0 31,-1 19,0 29,-1 30,-1 4,0 9,1 16,1 50,46 91,84 123,117 31,34 147,149 347,347l0 -11 -3 -57c0,-34 -1,-60 -3,-80 -3,-19 -3,-43 -4,-69 0,-27 0,-51 -3,-74 -4,-43 -6,-67 -6,-74 0,-21 -3,-34 -7,-39 -7,-7 -23,-13 -47,-16 -17,-3 -31,-7 -40,-11l0 -29 13 -1 96 -3 107 -4c7,0 14,0 20,0l1 31c-7,4 -16,7 -23,10 -21,4 -33,7 -36,10 -17,9 -26,14 -27,17 -3,4 -4,10 -4,19 0,1 0,9 1,20 0,6 0,20 0,41 1,47 1,84 4,111 1,10 1,20 1,30l6 173c0,11 0,20 0,26l0 60 1 26 -1 27c1,13 3,20 3,23l0 26 -56 3 -59 -60 -120 -119 -83 -83 -61 -63c-40,-40 -76,-74 -109,-104l-80 -71 4 181c1,11 1,23 1,34l-1 34 3 64c1,27 3,56 6,87 1,9 1,14 3,17 1,4 3,9 6,16 13,4 40,7 83,10 3,0 7,1 13,3l3 41 -20 1c-10,0 -43,-3 -99,-9 -53,1 -87,1 -104,3 -17,1 -27,3 -29,3 -4,0 -10,-1 -16,-3 -1,-7 -1,-14 -1,-20 0,-3 0,-9 0,-17 10,-1 17,-3 23,-3 3,0 9,0 20,1 27,0 43,-3 49,-7 4,-4 7,-14 9,-33 1,-51 3,-83 3,-94l0 -27 1 -159 -1 -100c-1,-39 -3,-64 -9,-79 -1,-7 -6,-14 -10,-20 -11,-11 -24,-20 -39,-26 -9,-4 -30,-9 -66,-14l0 0 3 2zm892 -67l30 0c3,4 4,6 6,9 9,16 16,27 20,31 4,1 27,1 67,1 26,0 47,0 67,0l10 -1 60 0 110 0 151 0 29 -4c4,-3 9,-11 14,-24 1,-3 3,-7 4,-11l21 -1c4,0 9,0 16,1 0,21 0,56 0,101l0 43 0 26c0,9 0,16 -1,21 -14,4 -26,7 -36,9 -9,-13 -19,-31 -29,-56 -10,-23 -16,-37 -19,-40 -4,-3 -9,-6 -13,-7 -9,-1 -43,-3 -104,-3 -10,0 -21,0 -34,1 -1,13 -3,24 -3,31l0 66 0 144 1 156 0 64c0,21 3,39 6,50 6,3 16,4 30,7 3,0 14,3 36,7 10,3 19,6 27,9 1,11 1,19 1,21 0,3 0,6 -1,11 -7,1 -13,1 -17,1 -34,0 -63,-1 -86,-4 -24,-1 -67,-3 -129,-3 -10,0 -39,1 -86,6 -19,1 -31,1 -37,1 0,-4 0,-9 0,-10l-1 -11 0 -4c7,-10 21,-17 41,-21 34,-9 57,-16 70,-21 4,-7 6,-14 6,-26 3,-39 4,-101 4,-187l-3 -184c0,-51 0,-83 -3,-93 0,-3 -1,-6 -3,-7 -1,-1 -4,-1 -7,-3 -10,-1 -43,-1 -99,-1 -31,0 -51,3 -61,9 -14,9 -36,30 -63,66 -9,11 -14,16 -19,16 -16,-7 -24,-14 -29,-19 10,-21 23,-64 41,-129 6,-19 9,-30 11,-37l0 0 4 -1z"/>
   </g>
   <g>
    <path class="fil4" d="M7838 3262c19,1 34,3 49,6 26,3 56,4 90,4 11,0 41,0 90,-3 73,-3 139,-4 197,-4l89 0c20,0 50,3 89,7 6,6 9,16 9,26l0 101 1 20c0,1 0,4 -1,9l-20 1c-1,0 -7,0 -16,-1 -3,-6 -7,-16 -13,-29l-20 -36c-7,-14 -17,-30 -31,-44 -9,-3 -19,-4 -31,-4 -3,0 -13,-1 -30,-3 -30,-3 -63,-3 -97,-3 -40,0 -76,0 -107,1 0,9 0,40 0,96l0 83 0 60c7,1 14,3 20,3 59,0 100,-1 124,-4 26,-1 40,-6 46,-10 7,-3 11,-10 16,-20 3,-7 9,-31 17,-73l7 0 29 0c1,29 1,51 1,66 0,34 0,57 0,67 0,10 0,17 0,23 0,9 0,23 1,41 0,20 1,34 1,44l0 10 -36 0c-1,-4 -3,-16 -7,-31 -7,-30 -13,-50 -17,-57 -4,-6 -11,-10 -20,-13 -6,-3 -30,-3 -73,-3 -49,0 -86,1 -110,3 0,9 0,14 0,17 0,39 0,71 0,97l0 106c0,11 4,20 13,26 13,6 54,10 123,10 46,0 84,-4 117,-10 21,-6 41,-17 57,-33 23,-23 41,-53 56,-93 10,0 19,-1 24,-1 4,0 10,0 17,1 -1,7 -1,14 -3,20l-3 14 -19 93 -9 56c-20,1 -37,1 -50,1 -19,0 -67,-1 -146,-4 -56,-3 -124,-4 -203,-4 -39,0 -87,3 -144,6l-20 0 -59 1 0 -34c6,-1 17,-3 36,-4 34,-4 57,-10 71,-16 3,-10 4,-21 4,-36 0,-6 0,-16 0,-29l0 -16 -1 -184 1 -54 -3 -79 0 -56 -4 -60c0,-3 0,-6 0,-10 -4,-4 -9,-6 -16,-7 -3,0 -9,-1 -14,-3 -19,-4 -36,-6 -54,-7 -6,0 -13,-1 -20,-1l1 -40 0 0 1 0zm731 603c9,-4 21,-7 39,-10 16,-1 31,-6 44,-10 1,-7 3,-11 3,-14 1,-4 1,-20 1,-47l0 -109 1 -59 -1 -46 1 -26c0,-36 0,-70 0,-100 0,-69 0,-111 -1,-130l-29 -6c-26,-3 -44,-4 -53,-6l-1 -29 3 -6c16,-3 31,-4 44,-4 9,0 23,0 46,0 24,1 37,3 39,3l26 -1 61 -3c39,-4 79,-6 121,-6 66,0 120,17 159,51 40,34 60,73 60,117 0,33 -11,63 -33,89 -20,27 -53,47 -97,61 4,7 9,14 16,24 13,19 24,36 33,50l79 126c19,34 31,53 37,59 7,6 19,13 39,19 14,6 26,11 33,17 1,6 3,10 3,14 0,3 0,7 0,11l-13 0 -10 0 -26 -3 -20 0c-11,0 -24,-1 -39,-1l-49 0c-4,0 -16,0 -34,3 -10,0 -17,1 -21,1l-17 -33c-13,-24 -23,-41 -29,-54 -14,-31 -39,-81 -74,-150 -16,-33 -27,-50 -34,-54 -10,-7 -26,-10 -50,-10 -7,0 -17,0 -33,0 -1,10 -3,21 -3,34l3 109 -3 91c9,6 21,10 36,13 26,6 47,11 66,19 0,16 0,29 -1,37 -7,-1 -10,-1 -11,-1l-20 1c-71,-6 -113,-10 -126,-10 -9,0 -14,0 -19,1l-67 4c-20,1 -39,3 -56,3l-21 0c-1,-9 -1,-13 -1,-16 0,-4 1,-9 1,-16l0 0 -2 3zm220 -316c16,1 27,1 34,1 56,0 96,-10 119,-30 23,-20 36,-47 36,-80 0,-20 -3,-40 -9,-57 -6,-19 -13,-31 -21,-40 -13,-13 -29,-23 -47,-30 -14,-4 -37,-7 -70,-7 -14,0 -27,1 -39,3l0 9 0 67 -1 40 1 53c-1,14 -1,34 -3,59l0 13 0 0 0 -1z"/>
    <path id="_1_0" class="fil4" d="M7838 3262c19,1 34,3 49,6 26,3 56,4 90,4 11,0 41,0 90,-3 73,-3 139,-4 197,-4l89 0c20,0 50,3 89,7 6,6 9,16 9,26l0 101 1 20c0,1 0,4 -1,9l-20 1c-1,0 -7,0 -16,-1 -3,-6 -7,-16 -13,-29l-20 -36c-7,-14 -17,-30 -31,-44 -9,-3 -19,-4 -31,-4 -3,0 -13,-1 -30,-3 -30,-3 -63,-3 -97,-3 -40,0 -76,0 -107,1 0,9 0,40 0,96l0 83 0 60c7,1 14,3 20,3 59,0 100,-1 124,-4 26,-1 40,-6 46,-10 7,-3 11,-10 16,-20 3,-7 9,-31 17,-73l7 0 29 0c1,29 1,51 1,66 0,34 0,57 0,67 0,10 0,17 0,23 0,9 0,23 1,41 0,20 1,34 1,44l0 10 -36 0c-1,-4 -3,-16 -7,-31 -7,-30 -13,-50 -17,-57 -4,-6 -11,-10 -20,-13 -6,-3 -30,-3 -73,-3 -49,0 -86,1 -110,3 0,9 0,14 0,17 0,39 0,71 0,97l0 106c0,11 4,20 13,26 13,6 54,10 123,10 46,0 84,-4 117,-10 21,-6 41,-17 57,-33 23,-23 41,-53 56,-93 10,0 19,-1 24,-1 4,0 10,0 17,1 -1,7 -1,14 -3,20l-3 14 -19 93 -9 56c-20,1 -37,1 -50,1 -19,0 -67,-1 -146,-4 -56,-3 -124,-4 -203,-4 -39,0 -87,3 -144,6l-20 0 -59 1 0 -34c6,-1 17,-3 36,-4 34,-4 57,-10 71,-16 3,-10 4,-21 4,-36 0,-6 0,-16 0,-29l0 -16 -1 -184 1 -54 -3 -79 0 -56 -4 -60c0,-3 0,-6 0,-10 -4,-4 -9,-6 -16,-7 -3,0 -9,-1 -14,-3 -19,-4 -36,-6 -54,-7 -6,0 -13,-1 -20,-1l1 -40 0 0 1 0zm731 603c9,-4 21,-7 39,-10 16,-1 31,-6 44,-10 1,-7 3,-11 3,-14 1,-4 1,-20 1,-47l0 -109 1 -59 -1 -46 1 -26c0,-36 0,-70 0,-100 0,-69 0,-111 -1,-130l-29 -6c-26,-3 -44,-4 -53,-6l-1 -29 3 -6c16,-3 31,-4 44,-4 9,0 23,0 46,0 24,1 37,3 39,3l26 -1 61 -3c39,-4 79,-6 121,-6 66,0 120,17 159,51 40,34 60,73 60,117 0,33 -11,63 -33,89 -20,27 -53,47 -97,61 4,7 9,14 16,24 13,19 24,36 33,50l79 126c19,34 31,53 37,59 7,6 19,13 39,19 14,6 26,11 33,17 1,6 3,10 3,14 0,3 0,7 0,11l-13 0 -10 0 -26 -3 -20 0c-11,0 -24,-1 -39,-1l-49 0c-4,0 -16,0 -34,3 -10,0 -17,1 -21,1l-17 -33c-13,-24 -23,-41 -29,-54 -14,-31 -39,-81 -74,-150 -16,-33 -27,-50 -34,-54 -10,-7 -26,-10 -50,-10 -7,0 -17,0 -33,0 -1,10 -3,21 -3,34l3 109 -3 91c9,6 21,10 36,13 26,6 47,11 66,19 0,16 0,29 -1,37 -7,-1 -10,-1 -11,-1l-20 1c-71,-6 -113,-10 -126,-10 -9,0 -14,0 -19,1l-67 4c-20,1 -39,3 -56,3l-21 0c-1,-9 -1,-13 -1,-16 0,-4 1,-9 1,-16l0 0 -2 3zm220 -316c16,1 27,1 34,1 56,0 96,-10 119,-30 23,-20 36,-47 36,-80 0,-20 -3,-40 -9,-57 -6,-19 -13,-31 -21,-40 -13,-13 -29,-23 -47,-30 -14,-4 -37,-7 -70,-7 -14,0 -27,1 -39,3l0 9 0 67 -1 40 1 53c-1,14 -1,34 -3,59l0 13 0 0 0 -1z"/>
   </g>
  </g>
 </g>
</svg>
